<?xml version="1.0" encoding="UTF-8"?>
<svg version="1.1" xmlns="http://www.w3.org/2000/svg" width="460" height="460">
<path d="M0 0 C151.8 0 303.6 0 460 0 C460 151.8 460 303.6 460 460 C308.2 460 156.4 460 0 460 C0 308.2 0 156.4 0 0 Z " fill="#2A0B56" transform="translate(0,0)"/>
<path d="M0 0 C2.0645382 1.55723614 2.90061393 2.41843119 3.34057617 4.99291992 C3.32486572 5.73131104 3.30915527 6.46970215 3.29296875 7.23046875 C3.28330078 8.03291016 3.27363281 8.83535156 3.26367188 9.66210938 C3.23853516 10.49548828 3.21339844 11.32886719 3.1875 12.1875 C3.17396484 13.03248047 3.16042969 13.87746094 3.14648438 14.74804688 C3.11115799 16.83230384 3.05735139 18.91623277 3 21 C4.05445313 20.3503125 5.10890625 19.700625 6.1953125 19.03125 C11.57855511 15.96748397 16.49492338 16.04765603 22.4296875 17.66015625 C28.83725967 20.15198987 33.07576518 23.94744484 36.03125 30.171875 C38.21037823 36.02323785 39.25813402 41.54281977 37.0859375 47.51171875 C33.91557613 54.35356313 30.47123551 59.32822106 23.6015625 62.63671875 C17.91693772 64.66326369 12.15434434 64.43726272 6.1875 64.375 C4.49077148 64.39240234 4.49077148 64.39240234 2.75976562 64.41015625 C1.67759766 64.40628906 0.59542969 64.40242188 -0.51953125 64.3984375 C-1.99063354 64.39336182 -1.99063354 64.39336182 -3.49145508 64.38818359 C-6.50368997 63.92205673 -7.19345713 63.41336017 -9 61 C-9.38095093 58.45751953 -9.38095093 58.45751953 -9.38818359 55.3828125 C-9.39764008 54.23151855 -9.40709656 53.08022461 -9.4168396 51.89404297 C-9.41076691 50.65025879 -9.40469421 49.40647461 -9.3984375 48.125 C-9.40130768 46.84898926 -9.40417786 45.57297852 -9.40713501 44.25830078 C-9.40917835 41.55795884 -9.40513392 38.85842919 -9.39111328 36.15820312 C-9.37402089 32.6978077 -9.38386307 29.23811029 -9.40183067 25.77774048 C-9.41528016 22.47680194 -9.40586244 19.17594764 -9.3984375 15.875 C-9.40451019 14.63121582 -9.41058289 13.38743164 -9.4168396 12.10595703 C-9.40265488 10.37901611 -9.40265488 10.37901611 -9.38818359 8.6171875 C-9.38579681 7.60253418 -9.38341003 6.58788086 -9.38095093 5.54248047 C-9 3 -9 3 -7.66323853 1.17236328 C-5.07234078 -0.65387711 -3.07397199 -0.3842465 0 0 Z " fill="#F9F7F4" transform="translate(323,188)"/>
<path d="M0 0 C1.47110229 -0.00676758 1.47110229 -0.00676758 2.97192383 -0.01367188 C4.0540918 -0.01882812 5.13625977 -0.02398437 6.2512207 -0.02929688 C7.38237305 -0.01382813 8.51352539 0.00164062 9.67895508 0.01757812 C10.79077148 0.00210938 11.90258789 -0.01335937 13.0480957 -0.02929688 C21.52823698 0.01086957 27.07292495 1.24767974 33.36645508 7.26757812 C37.29470725 13.27549321 38.64150739 20.39429494 37.49145508 27.51757812 C35.03483836 34.41031677 31.99133252 39.2306203 25.35473633 42.60351562 C21.60986616 43.79901306 18.06225526 43.73280673 14.17895508 43.64257812 C13.43838867 43.63355469 12.69782227 43.62453125 11.93481445 43.61523438 C10.1202204 43.59182026 8.30579437 43.55595428 6.49145508 43.51757812 C6.52625977 44.70996094 6.56106445 45.90234375 6.59692383 47.13085938 C6.62506261 48.69725154 6.65236267 50.26365894 6.67895508 51.83007812 C6.71666016 53.00860352 6.71666016 53.00860352 6.75512695 54.2109375 C6.76962891 55.34692383 6.76962891 55.34692383 6.78442383 56.50585938 C6.8079895 57.55060425 6.8079895 57.55060425 6.83203125 58.61645508 C6.38277613 61.12423257 5.49135044 61.98335973 3.49145508 63.51757812 C0.49145508 64.01757812 0.49145508 64.01757812 -2.50854492 63.51757812 C-5.17062845 60.0125088 -5.88562655 57.41077903 -5.89672852 53.05639648 C-5.906185 51.9885643 -5.91564148 50.92073212 -5.92538452 49.82054138 C-5.91627548 48.10629723 -5.91627548 48.10629723 -5.90698242 46.35742188 C-5.9098526 45.17539688 -5.91272278 43.99337189 -5.91567993 42.77552795 C-5.91771913 40.27995321 -5.91219943 37.78436243 -5.8996582 35.28881836 C-5.88358923 31.46562054 -5.89952018 27.64347766 -5.91870117 23.8203125 C-5.916719 21.39517996 -5.91287585 18.97004807 -5.90698242 16.54492188 C-5.91305511 15.40006821 -5.91912781 14.25521454 -5.92538452 13.07566833 C-5.91592804 12.01098831 -5.90647156 10.94630829 -5.89672852 9.84936523 C-5.89434174 8.91402451 -5.89195496 7.97868378 -5.88949585 7.01499939 C-5.29472084 3.11579966 -3.9418401 0.81330423 0 0 Z " fill="#F4F2F1" transform="translate(20.508544921875,187.482421875)"/>
<path d="M0 0 C5.853129 3.20314093 8.99394607 7.09659449 11.77734375 12.97265625 C13.15280389 18.78420308 12.99770459 24.72121026 13.02734375 30.66015625 C13.04796875 31.70494141 13.06859375 32.74972656 13.08984375 33.82617188 C13.09757812 35.32760742 13.09757812 35.32760742 13.10546875 36.859375 C13.1194873 38.22388794 13.1194873 38.22388794 13.13378906 39.6159668 C12.77734375 41.97265625 12.77734375 41.97265625 11.64697266 43.76733398 C8.92271971 45.5236198 6.75772039 45.3614053 3.53515625 45.37109375 C1.68857422 45.37689453 1.68857422 45.37689453 -0.1953125 45.3828125 C-1.48308594 45.37121094 -2.77085937 45.35960937 -4.09765625 45.34765625 C-5.37769531 45.35925781 -6.65773438 45.37085938 -7.9765625 45.3828125 C-9.82701172 45.37701172 -9.82701172 45.37701172 -11.71484375 45.37109375 C-12.8426123 45.36770996 -13.97038086 45.36432617 -15.13232422 45.36083984 C-18.57365305 44.92856675 -20.40890945 43.9511196 -23.22265625 41.97265625 C-24.49109375 41.10640625 -24.49109375 41.10640625 -25.78515625 40.22265625 C-29.87058886 36.45148769 -33.01785908 31.36585748 -33.49609375 25.77734375 C-33.69883416 17.93284952 -33.72603727 12.03790078 -28.22265625 5.97265625 C-27.48402344 5.11220703 -27.48402344 5.11220703 -26.73046875 4.234375 C-19.65530896 -3.44565596 -9.33959115 -4.10636421 0 0 Z " fill="#F7F5F3" transform="translate(288.22265625,207.02734375)"/>
<path d="M0 0 C0.721875 0.495 1.44375 0.99 2.1875 1.5 C2.1875 2.16 2.1875 2.82 2.1875 3.5 C3.1775 3.83 4.1675 4.16 5.1875 4.5 C9.68015387 9.9418061 10.73395422 15.30888106 10.65625 22.21484375 C10.1875 24.5 10.1875 24.5 7.1875 26.5 C4.27661133 26.72705078 4.27661133 26.72705078 0.76953125 26.6953125 C-1.11088867 26.68564453 -1.11088867 26.68564453 -3.02929688 26.67578125 C-4.99479492 26.65064453 -4.99479492 26.65064453 -7 26.625 C-8.33527987 26.61496639 -9.67056689 26.6058412 -11.00585938 26.59765625 C-14.27492015 26.57405292 -17.54362028 26.54112594 -20.8125 26.5 C-19.05682972 30.31051307 -17.76937077 31.81622521 -13.8125 33.5 C-8.04657833 34.27437061 -4.74380271 33.56540439 0.1875 30.5 C3.4375 30.6875 3.4375 30.6875 6.1875 31.5 C7.69025341 34.50550681 7.77515005 36.16998307 7.1875 39.5 C1.1806897 44.86475219 -5.19024279 45.86447074 -12.9921875 45.78125 C-20.82715225 44.99992388 -25.72100267 40.25396105 -30.5625 34.375 C-34.33497461 28.71628809 -33.2885569 21.01517877 -32.8125 14.5 C-31.23499942 8.28502786 -27.10803497 3.95696046 -21.8125 0.5 C-15.51931985 -2.60421176 -6.3900111 -3.22557977 0 0 Z " fill="#F6F4F2" transform="translate(404.8125,206.5)"/>
<path d="M0 0 C5.55934461 3.3468567 9.91436093 7.92027978 12.37890625 13.95703125 C13.59110468 20.1417171 13.21858567 25.37924533 9.94140625 30.83203125 C5.6620869 36.29562735 1.18390521 40.31353878 -5.80859375 41.49609375 C-13.03358409 41.81385953 -18.21825912 40.8686991 -23.62109375 35.95703125 C-28.84729366 30.82251905 -30.70830548 27.12558494 -31.05859375 19.76953125 C-30.97369892 13.40241937 -28.92213559 9.56146608 -24.62109375 4.95703125 C-17.74614941 -1.72464156 -9.06171907 -3.60578091 0 0 Z " fill="#34175E" transform="translate(138.62109375,209.04296875)"/>
<path d="M0 0 C4.65518787 1.67586763 5.98139645 4.92540613 8.125 9.125 C8.4535498 9.76679199 8.78209961 10.40858398 9.12060547 11.06982422 C11.49969543 15.73351997 13.82483488 20.42193285 16.125 25.125 C16.785 25.125 17.445 25.125 18.125 25.125 C18.42792969 24.23039062 18.73085937 23.33578125 19.04296875 22.4140625 C24.87195027 5.59072508 24.87195027 5.59072508 28.125 1.125 C31.1875 -0.1875 31.1875 -0.1875 34.125 0.125 C36.5 1.1875 36.5 1.1875 38.125 3.125 C38.6906086 8.24564316 37.1827383 12.07113559 35.0625 16.625 C34.58768188 17.68037964 34.58768188 17.68037964 34.10327148 18.75708008 C32.09279587 23.17873269 29.92357 27.50007929 27.6875 31.8125 C24.1739885 38.67296829 21.48925836 45.77139087 18.87719727 53.01831055 C18.56194092 53.88109619 18.24668457 54.74388184 17.921875 55.6328125 C17.64698242 56.40254395 17.37208984 57.17227539 17.08886719 57.96533203 C16.01638102 60.36837476 14.90864771 62.18575749 13.125 64.125 C9.62453714 64.56255786 7.24608727 64.75561159 4.125 63 C2.60063615 60.14181778 3.40813162 58.24005177 4.125 55.125 C5.61742162 51.76503457 7.27212528 48.51921806 8.9453125 45.24609375 C10.24204432 41.8153364 10.31169832 40.5346684 9.125 37.125 C8.07494184 34.803911 8.07494184 34.803911 6.6875 32.4375 C6.1615625 31.49132812 5.635625 30.54515625 5.09375 29.5703125 C3.57149182 26.90636069 2.0268742 24.26003981 0.46875 21.6171875 C0.01040771 20.82530029 -0.44793457 20.03341309 -0.92016602 19.2175293 C-1.83621248 17.63520881 -2.76608638 16.06079957 -3.71069336 14.49536133 C-5.74685955 10.95711167 -6.88086267 8.85783316 -6.84765625 4.70703125 C-5.45958539 1.02223269 -3.88680213 0.1689914 0 0 Z " fill="#F6F5F3" transform="translate(210.875,204.875)"/>
<path d="M0 0 C4.04637194 0.72834695 5.93830959 3.36818324 8.484375 6.3671875 C8.97808594 6.92277344 9.47179687 7.47835937 9.98046875 8.05078125 C13.53360615 12.0906498 13.53360615 12.0906498 14.734375 14.4921875 C15.394375 14.4921875 16.054375 14.4921875 16.734375 14.4921875 C18.3145794 12.56410228 19.78549891 10.64005923 21.234375 8.6171875 C25.54475636 2.68180614 25.54475636 2.68180614 27.734375 0.4921875 C31.03152293 0.82190229 32.3570589 1.1148714 34.734375 3.4921875 C35.32966391 8.45759733 34.17548419 11.09203162 31.421875 15.1796875 C30.80699219 16.11167969 30.19210938 17.04367188 29.55859375 18.00390625 C27.734375 20.4921875 27.734375 20.4921875 26.00390625 22.19921875 C24.50083832 23.42802947 24.50083832 23.42802947 24.734375 25.4921875 C25.435625 26.1728125 26.136875 26.8534375 26.859375 27.5546875 C30.46769063 31.0593159 33.50233145 34.97249789 35.734375 39.4921875 C35.64346591 44.58309659 35.64346591 44.58309659 33.734375 46.4921875 C31.0390625 46.921875 31.0390625 46.921875 27.734375 46.4921875 C25.47779856 44.56555435 23.74207407 42.85289265 21.859375 40.6171875 C21.36179688 40.06160156 20.86421875 39.50601563 20.3515625 38.93359375 C16.734375 34.80960251 16.734375 34.80960251 16.734375 32.4921875 C13.02239925 35.98581173 10.02447481 39.66808961 7.06640625 43.8203125 C5.734375 45.4921875 5.734375 45.4921875 3.734375 46.4921875 C0.734375 46.6796875 0.734375 46.6796875 -2.265625 46.4921875 C-4.265625 44.4921875 -4.265625 44.4921875 -4.6640625 41.76171875 C-4.14678867 37.51703052 -2.52489517 35.51615272 0.109375 32.1796875 C0.728125 31.3743457 0.728125 31.3743457 1.359375 30.55273438 C4.40552213 26.65661394 4.40552213 26.65661394 6.734375 25.4921875 C5.1856206 22.00546295 3.08925155 19.30664719 0.671875 16.3671875 C-3.44929067 11.34428395 -4.6218108 9.14098902 -4.265625 2.4921875 C-2.265625 0.4921875 -2.265625 0.4921875 0 0 Z " fill="#F7F5F3" transform="translate(163.265625,204.5078125)"/>
<path d="M0 0 C2.19679438 1.6154022 2.91297308 2.51524232 3.39872742 5.22099304 C3.40983047 6.08481094 3.42093353 6.94862885 3.43237305 7.83862305 C3.46206429 9.30980843 3.46206429 9.30980843 3.49235535 10.81071472 C3.49874527 11.86704605 3.50513519 12.92337738 3.51171875 14.01171875 C3.52966995 15.09508011 3.54762115 16.17844147 3.56611633 17.29463196 C3.62034985 20.75888157 3.65415744 24.22299238 3.6875 27.6875 C3.72066149 30.03452458 3.75515004 32.38153081 3.79101562 34.72851562 C3.87608374 40.48555262 3.94437832 46.2426073 4 52 C5.175625 51.938125 5.175625 51.938125 6.375 51.875 C9 52 9 52 11 54 C11.3125 57.5 11.3125 57.5 11 61 C6.95985967 63.69342689 3.74370137 63.65977537 -1 63 C-4.96986258 60.84246599 -6.67926072 58.3181976 -8.38018799 54.17053223 C-9.63691668 49.76956858 -9.42532282 45.2466989 -9.3984375 40.703125 C-9.40130768 39.63253845 -9.40417786 38.5619519 -9.40713501 37.45892334 C-9.40916904 35.20649687 -9.40368567 32.95405246 -9.39111328 30.70166016 C-9.3749875 27.24732335 -9.39101749 23.7941454 -9.41015625 20.33984375 C-9.40817494 18.14843491 -9.40433359 15.9570268 -9.3984375 13.765625 C-9.40451019 12.73125305 -9.41058289 11.6968811 -9.4168396 10.63116455 C-9.40265488 9.19386993 -9.40265488 9.19386993 -9.38818359 7.72753906 C-9.38579681 6.88483459 -9.38341003 6.04213013 -9.38095093 5.17388916 C-8.44663236 -0.1577818 -4.82575838 -0.6032198 0 0 Z " fill="#FAF8F5" transform="translate(435,188)"/>
<path d="M0 0 C1.051875 0.556875 1.051875 0.556875 2.125 1.125 C2.74375 1.41375 3.3625 1.7025 4 2 C4.598125 1.69449219 5.19625 1.38898438 5.8125 1.07421875 C9.67647138 -0.8232672 13.79206898 -0.45652082 18 0 C21.625 1.5 21.625 1.5 24 3 C24.125 5.875 24.125 5.875 24 9 C21.26423034 11.73576966 19.44099685 11.36098107 15.625 11.5625 C10.20378785 11.70743235 10.20378785 11.70743235 5 13 C3.92134103 16.23597692 3.85918595 18.65520299 3.82421875 22.05859375 C3.80037109 23.24904297 3.77652344 24.43949219 3.75195312 25.66601562 C3.70905407 28.17626025 3.67776573 30.68673068 3.65820312 33.19726562 C3.63048828 34.38900391 3.60277344 35.58074219 3.57421875 36.80859375 C3.55963623 37.89970459 3.54505371 38.99081543 3.5300293 40.11499023 C2.88123218 43.64646676 1.85641098 44.87666453 -1 47 C-4.6985004 46.85205998 -6.35805573 46.64194427 -9 44 C-9.21245194 40.94994553 -9.30395229 37.99305373 -9.30078125 34.94140625 C-9.30506638 34.04131332 -9.3093515 33.1412204 -9.31376648 32.21385193 C-9.3195153 30.30818524 -9.32000599 28.40249661 -9.31567383 26.49682617 C-9.31251631 23.5775819 -9.33595734 20.65935306 -9.36132812 17.74023438 C-9.36360127 15.89062628 -9.36430454 14.04101546 -9.36328125 12.19140625 C-9.372491 11.31633926 -9.38170074 10.44127228 -9.39118958 9.53968811 C-9.38496078 8.72551926 -9.37873199 7.9113504 -9.37231445 7.07250977 C-9.37294388 6.35684341 -9.3735733 5.64117706 -9.3742218 4.90382385 C-8.35418229 -0.28554655 -4.60527632 -0.46992616 0 0 Z " fill="#F8F7F4" transform="translate(77,205)"/>
<path d="M0 0 C3.2702574 2.11109685 6.2424884 4.4849768 8 8 C8.53118173 11.79415519 8.85089348 15.46331178 6.953125 18.890625 C4.52414924 21.8339721 2.62709223 23.79841335 -1.20703125 24.2734375 C-8.29132231 24.54958678 -8.29132231 24.54958678 -12.0625 21.625 C-15.57135645 16.87106546 -15.66739942 12.8054607 -15 7 C-11.39456734 0.81925829 -7.03966436 -0.95453076 0 0 Z " fill="#2E1059" transform="translate(281,216)"/>
<path d="M0 0 C4.81659662 2.45551985 7.28103603 4.84310809 9 10 C8.83153898 14.80113908 7.86808769 18.13911273 5 22 C0.96839035 24.68773977 -2.26423878 24.67415933 -7 24 C-10.1225042 22.20622099 -11.54716303 20.79785562 -13.3125 17.6875 C-14.21852825 14.14575319 -14.50375379 11.65221494 -14 8 C-10.27077335 2.23456984 -7.07901992 -0.68067499 0 0 Z " fill="#2F115A" transform="translate(340,216)"/>
<path d="M0 0 C5.55934461 3.3468567 9.91436093 7.92027978 12.37890625 13.95703125 C13.59110468 20.1417171 13.21858567 25.37924533 9.94140625 30.83203125 C5.6620869 36.29562735 1.18390521 40.31353878 -5.80859375 41.49609375 C-13.03358409 41.81385953 -18.21825912 40.8686991 -23.62109375 35.95703125 C-28.84729366 30.82251905 -30.70830548 27.12558494 -31.05859375 19.76953125 C-30.97369892 13.40241937 -28.92213559 9.56146608 -24.62109375 4.95703125 C-17.74614941 -1.72464156 -9.06171907 -3.60578091 0 0 Z M-24.99609375 9.58203125 C-27.79400808 13.5432889 -28.39894784 16.6954855 -28.07421875 21.5 C-26.76565993 28.59554742 -23.3801025 32.82556845 -17.62109375 36.95703125 C-13.13762116 39.19876755 -7.47332163 38.54724376 -2.62109375 37.95703125 C3.30966869 35.35826211 6.98294727 30.84709707 9.37890625 24.95703125 C10.29530999 19.0267404 9.40205805 14.19716104 6.37890625 8.95703125 C2.58061266 4.84221319 -1.72923109 2.31904026 -7.3046875 1.62109375 C-15.50057177 1.50484007 -19.57362281 3.36694855 -24.99609375 9.58203125 Z " fill="#E0DBE4" transform="translate(138.62109375,209.04296875)"/>
<path d="M0 0 C12.87919756 -0.60183166 12.87919756 -0.60183166 16.0078125 1.078125 C17.3125 2.4375 17.3125 2.4375 19 5 C19.33 5.33 19.66 5.66 20 6 C20.13002588 10.49518044 19.48636834 14.11733153 17.3125 18.0625 C11.78639289 21.29475133 6.3034516 20.29455381 0 20 C0 13.4 0 6.8 0 0 Z " fill="#2D0E58" transform="translate(27,199)"/>
<path d="M0 0 C2.35303599 1.46131785 4.31667336 3.00205222 6.33984375 4.890625 C7.16162109 5.65052734 7.16162109 5.65052734 8 6.42578125 C12.03476177 11.00000977 11.76857842 15.6215176 11.515625 21.51171875 C11.42861328 22.68927734 11.42861328 22.68927734 11.33984375 23.890625 C11.00984375 23.890625 10.67984375 23.890625 10.33984375 23.890625 C10.25734375 22.900625 10.17484375 21.910625 10.08984375 20.890625 C9.26016591 15.20963648 7.01449975 10.5223411 2.90234375 6.515625 C-3.13463188 2.68729899 -8.627448 2.07238649 -15.66015625 2.890625 C-20.72284632 5.23446299 -24.18899771 8.92033254 -26.66015625 13.890625 C-27.59155896 17.19638074 -28.20158926 20.48901613 -28.66015625 23.890625 C-28.99015625 23.890625 -29.32015625 23.890625 -29.66015625 23.890625 C-30.69194821 12.42626989 -30.69194821 12.42626989 -27.16015625 7.453125 C-19.88010609 -0.6376964 -10.71603003 -4.46894644 0 0 Z " fill="#DBD6E0" transform="translate(138.66015625,209.109375)"/>
<path d="M0 0 C3.0625 2.375 3.0625 2.375 5 5 C5 5.66 5 6.32 5 7 C-1.6 7 -8.2 7 -15 7 C-11.583448 0.166896 -7.46102589 -1.46034315 0 0 Z " fill="#31135B" transform="translate(399,216)"/>
<path d="M0 0 C3.32957948 2.59980864 3.61761712 5.11064555 4.1875 9.1875 C4.42533203 10.81751953 4.42533203 10.81751953 4.66796875 12.48046875 C4.77753906 13.31191406 4.88710937 14.14335937 5 15 C4.01 15.33 3.02 15.66 2 16 C0.24836544 12.22777911 -0.22490027 9.333361 -0.125 5.1875 C-0.10695313 4.21167969 -0.08890625 3.23585937 -0.0703125 2.23046875 C-0.04710938 1.49441406 -0.02390625 0.75835937 0 0 Z " fill="#BEB4C9" transform="translate(108,223)"/>
<path d="M0 0 C4.02224515 1.34074838 5.39542862 3.7275898 8 7 C8.66 7.66 9.32 8.32 10 9 C8.68 9.33 7.36 9.66 6 10 C4.99106869 8.90398831 3.99311775 7.79786082 3 6.6875 C2.1646875 5.76517578 2.1646875 5.76517578 1.3125 4.82421875 C0 3 0 3 0 0 Z " fill="#DDD8E2" transform="translate(111,237)"/>
<path d="M0 0 C-0.49561901 2.23028553 -1.09064243 4.20961061 -2 6.3125 C-3.19315675 9.51910877 -3.60132258 12.61124193 -4 16 C-4.33 16 -4.66 16 -5 16 C-5.08133791 14.08404032 -5.13934367 12.16708068 -5.1875 10.25 C-5.22230469 9.18265625 -5.25710937 8.1153125 -5.29296875 7.015625 C-4.94860213 3.47094463 -4.06391445 0 0 0 Z " fill="#EBE8ED" transform="translate(114,217)"/>
<path d="M0 0 C0.33 0 0.66 0 1 0 C1.08133791 1.91595968 1.13934367 3.83291932 1.1875 5.75 C1.22230469 6.81734375 1.25710937 7.8846875 1.29296875 8.984375 C0.97082786 12.30027855 0.22851086 13.59016673 -2 16 C-3.30460857 11.36139174 -2.83085477 7.68299961 -2 3 C-1.34 2.01 -0.68 1.02 0 0 Z " fill="#C4BCCE" transform="translate(150,223)"/>
<path d="M0 0 C4.29 0 8.58 0 13 0 C13 0.99 13 1.98 13 3 C8.71 2.67 4.42 2.34 0 2 C0 1.34 0 0.68 0 0 Z " fill="#E7E4EA" transform="translate(123,208)"/>
<path d="M0 0 C2.91517292 1.07401108 4.77810176 1.77810176 7 4 C4.21176345 5.0326802 3.1322726 5.04509293 0.25 4.0625 C-0.4925 3.711875 -1.235 3.36125 -2 3 C-1.34 2.67 -0.68 2.34 0 2 C0 1.34 0 0.68 0 0 Z " fill="#CEC7D5" transform="translate(136,209)"/>
<path d="M0 0 C4.29 0.33 8.58 0.66 13 1 C13 1.33 13 1.66 13 2 C11.20909747 2.19466332 9.41723495 2.38051213 7.625 2.5625 C6.12839844 2.71912109 6.12839844 2.71912109 4.6015625 2.87890625 C2 3 2 3 0 2 C0 1.34 0 0.68 0 0 Z " fill="#C5BCCE" transform="translate(119,246)"/>
</svg>
